HIERARCHY
ROOT Hips
{
	OFFSET -0.001795 -0.223333 0.028219
	CHANNELS 6 Xposition Yposition Zposition Zrotation Yrotation Xrotation 
	JOINT LeftUpLeg
	{
		OFFSET 0.069520 -0.091406 -0.006815
		CHANNELS 3 Zrotation Yrotation Xrotation
		JOINT LeftLeg
		{
			OFFSET 0.034277 -0.375199 -0.004496
			CHANNELS 3 Zrotation Yrotation Xrotation
			JOINT LeftFoot
			{
				OFFSET -0.013596 -0.397961 -0.043693
				CHANNELS 3 Zrotation Yrotation Xrotation
				JOINT LeftToe
				{
					OFFSET 0.026358 -0.055791 0.119288
					CHANNELS 3 Zrotation Yrotation Xrotation
					End Site
					{
						OFFSET 0.000000 0.000000 0.000000
					}
				}
			}
		}
	}
	JOINT RightUpLeg
	{
		OFFSET -0.067670 -0.090522 -0.004320
		CHANNELS 3 Zrotation Yrotation Xrotation
		JOINT RightLeg
		{
			OFFSET -0.038290 -0.382569 -0.008850
			CHANNELS 3 Zrotation Yrotation Xrotation
			JOINT RightFoot
			{
				OFFSET 0.015774 -0.398415 -0.042312
				CHANNELS 3 Zrotation Yrotation Xrotation
				JOINT RightToe
				{
					OFFSET -0.025372 -0.048144 0.123348
					CHANNELS 3 Zrotation Yrotation Xrotation
					End Site
					{
						OFFSET 0.000000 0.000000 0.000000
					}
				}
			}
		}
	}
	JOINT Spine
	{
		OFFSET -0.002533 0.108963 -0.026696
		CHANNELS 3 Zrotation Yrotation Xrotation
		JOINT Spine1
		{
			OFFSET 0.005487 0.135180 0.001092
			CHANNELS 3 Zrotation Yrotation Xrotation
			JOINT Spine2
			{
				OFFSET 0.001457 0.052922 0.025425
				CHANNELS 3 Zrotation Yrotation Xrotation
				JOINT Neck
				{
					OFFSET -0.002778 0.213870 -0.042857
					CHANNELS 3 Zrotation Yrotation Xrotation
					JOINT Head
					{
						OFFSET 0.005152 0.064970 0.051349
						CHANNELS 3 Zrotation Yrotation Xrotation
						End Site
						{
							OFFSET 0.000000 0.000000 0.000000
						}
					}
				}
				JOINT LeftShoulder
				{
					OFFSET 0.078845 0.121749 -0.034090
					CHANNELS 3 Zrotation Yrotation Xrotation
					JOINT LeftArm
					{
						OFFSET 0.090977 0.030469 -0.008868
						CHANNELS 3 Zrotation Yrotation Xrotation
						JOINT LeftForeArm
						{
							OFFSET 0.259612 -0.012772 -0.027456
							CHANNELS 3 Zrotation Yrotation Xrotation
							JOINT LeftHand
							{
								OFFSET 0.249234 0.008986 -0.001171
								CHANNELS 3 Zrotation Yrotation Xrotation
								End Site
								{
									OFFSET 0.000000 0.000000 0.000000
								}
							}
						}
					}
				}
				JOINT RightShoulder
				{
					OFFSET -0.081759 0.118833 -0.038615
					CHANNELS 3 Zrotation Yrotation Xrotation
					JOINT RightArm
					{
						OFFSET -0.096012 0.032551 -0.009143
						CHANNELS 3 Zrotation Yrotation Xrotation
						JOINT RightForeArm
						{
							OFFSET -0.253742 -0.013329 -0.021401
							CHANNELS 3 Zrotation Yrotation Xrotation
							JOINT RightHand
							{
								OFFSET -0.255298 0.007772 -0.005559
								CHANNELS 3 Zrotation Yrotation Xrotation
								End Site
								{
									OFFSET 0.000000 0.000000 0.000000
								}
							}
						}
					}
				}
			}
		}
	}
}
MOTION
Frames: 10
Frame Time: 0.050000
0.000000 0.942668 0.000000 -0.533360 -4.178372 8.621300 5.580457 -0.309975 -4.027003 -9.178168 1.074824 -0.396484 17.174651 29.001150 21.631204 0.000000 0.000000 0.000000 -3.141032 0.610777 -6.179193 -2.443286 -0.523083 -13.390044 12.163271 18.716291 12.222057 0.000000 0.000000 0.000000 5.670172 0.293059 -5.260000 -2.745834 1.227528 -4.570991 -3.947858 5.012288 2.443311 6.025523 -3.180969 -9.099542 0.000000 0.000000 0.000000 -15.791073 3.479078 -3.960375 -53.820053 -4.819541 -3.964656 -9.080619 -14.868680 1.614750 0.000000 0.000000 0.000000 14.637174 -10.872765 -6.191626 61.472119 1.267959 -4.833443 9.348576 18.348376 2.043188 0.000000 0.000000 0.000000 
-0.000052 0.942438 0.000490 -0.866430 -5.380417 9.346326 5.643626 -0.290802 -3.673521 -9.030023 1.007462 -2.057753 17.895470 29.706975 22.314339 0.000000 0.000000 0.000000 -3.057240 0.735737 -7.661366 -2.014391 -0.457343 -12.424609 12.646458 19.556037 12.283773 0.000000 0.000000 0.000000 7.007371 0.342257 -5.590684 -3.459238 1.511465 -4.629866 -4.668320 5.805699 1.326843 6.144055 -3.272225 -8.796160 0.000000 0.000000 0.000000 -16.711928 4.314401 -4.630851 -52.981737 -4.698950 -3.818067 -9.653191 -14.816235 1.664048 0.000000 0.000000 0.000000 14.256555 -12.131697 -6.724840 62.341564 -0.081017 -5.440924 10.240267 19.092410 2.274752 0.000000 0.000000 0.000000 
-0.000041 0.942103 0.000649 -0.505764 -5.207405 8.864749 5.426538 -0.283298 -3.540915 -9.281004 1.061921 -1.443736 17.746742 29.572898 22.111924 0.000000 0.000000 0.000000 -3.172475 0.722018 -7.559758 -2.515136 -0.426395 -11.647001 12.308251 19.623054 11.466736 0.000000 0.000000 0.000000 6.713232 0.266929 -4.855687 -3.106191 1.344045 -5.800155 -5.003818 5.439152 1.810543 5.677175 -3.093414 -8.087544 0.000000 0.000000 0.000000 -16.854356 3.368075 -4.133518 -52.962770 -4.479629 -3.960576 -9.205242 -14.199007 1.552046 0.000000 0.000000 0.000000 15.260133 -11.111142 -6.419770 61.626045 -0.163960 -5.537851 10.064920 20.002654 2.369846 0.000000 0.000000 0.000000 
-0.000122 0.941867 0.000826 -0.544696 -5.337990 9.450099 5.899139 -0.295621 -3.828627 -10.055011 1.120829 -2.030211 17.777161 29.573117 22.272070 0.000000 0.000000 0.000000 -3.404748 0.786620 -8.365237 -2.068165 -0.410278 -11.366501 12.304646 19.630972 11.460484 0.000000 0.000000 0.000000 6.974624 0.295300 -5.201444 -3.405031 1.478582 -5.075244 -4.886384 4.875349 0.051107 5.361574 -3.010700 -7.212672 0.000000 0.000000 0.000000 -16.900609 4.131976 -4.449998 -53.444302 -5.214206 -3.513771 -8.374445 -13.205480 1.350985 0.000000 0.000000 0.000000 13.901585 -11.417212 -6.434914 62.250843 -0.615886 -5.634550 11.715740 20.404424 2.648309 0.000000 0.000000 0.000000 
-0.000214 0.941931 0.000945 -0.387275 -5.240980 9.299147 5.455857 -0.291924 -3.610157 -9.551090 1.056396 -2.147090 17.706647 29.503010 22.219148 0.000000 0.000000 0.000000 -3.403605 0.775039 -8.238478 -2.363130 -0.407789 -11.274695 12.207083 19.608384 11.270501 0.000000 0.000000 0.000000 6.794479 0.283565 -5.091476 -3.197875 1.399625 -4.783486 -4.985157 4.655094 -0.275161 4.843383 -2.588058 -7.622692 0.000000 0.000000 0.000000 -17.099887 3.591507 -4.206531 -53.330730 -5.772324 -3.222131 -8.827837 -12.563386 1.333729 0.000000 0.000000 0.000000 13.498141 -11.274732 -6.308975 62.573906 -0.497592 -5.569815 11.979528 20.599223 2.711801 0.000000 0.000000 0.000000 
-0.000326 0.941926 0.001102 -0.298305 -5.267412 9.552591 5.396712 -0.294985 -3.588660 -9.614901 1.036705 -2.670048 17.673898 29.442751 22.323520 0.000000 0.000000 0.000000 -3.456466 0.782234 -8.313408 -2.445867 -0.426892 -11.641215 12.265056 19.561951 11.451214 0.000000 0.000000 0.000000 6.818956 0.309381 -5.375516 -3.242423 1.416388 -4.832609 -5.022998 4.479218 -0.503803 4.769976 -2.616481 -7.127451 0.000000 0.000000 0.000000 -17.417700 3.532130 -4.207162 -53.178843 -6.333707 -2.934304 -8.652736 -11.997234 1.257545 0.000000 0.000000 0.000000 12.911936 -11.099645 -6.141760 63.187842 -0.848939 -5.787967 12.262701 21.007866 2.808291 0.000000 0.000000 0.000000 
-0.000456 0.941870 0.001179 -0.280010 -4.918999 9.599739 5.267473 -0.304980 -3.686177 -9.310265 0.996817 -2.640651 17.492247 29.276453 22.104957 0.000000 0.000000 0.000000 -3.239320 0.776984 -8.232603 -2.850102 -0.438755 -11.757404 12.084228 19.334752 11.317742 0.000000 0.000000 0.000000 6.856230 0.316115 -5.473240 -3.238438 1.423010 -4.589624 -4.979582 4.131865 -0.932259 4.830139 -2.594187 -7.541522 0.000000 0.000000 0.000000 -17.621120 3.243726 -4.081154 -53.280684 -6.477480 -2.831022 -8.493990 -11.483240 1.188339 0.000000 0.000000 0.000000 12.656983 -11.002835 -6.071648 63.302233 -1.027094 -5.856038 12.271284 21.155014 2.818351 0.000000 0.000000 0.000000 
-0.000582 0.941948 0.001173 -0.433140 -4.700998 9.737971 5.137449 -0.321779 -3.946778 -8.716545 0.937782 -2.456907 17.453605 29.264157 21.962208 0.000000 0.000000 0.000000 -2.941962 0.791482 -8.367247 -3.065667 -0.438644 -11.693213 11.983771 19.187476 11.270228 0.000000 0.000000 0.000000 6.906949 0.304730 -5.405333 -3.098260 1.363340 -4.712503 -5.011932 4.196574 -1.272663 4.858033 -2.627366 -7.337836 0.000000 0.000000 0.000000 -17.608509 2.861518 -3.940558 -53.359300 -6.671062 -2.704475 -8.626819 -10.944269 1.138660 0.000000 0.000000 0.000000 12.716630 -11.067593 -6.092896 63.406436 -1.318260 -5.965742 12.213319 20.837450 2.765468 0.000000 0.000000 0.000000 
-0.000774 0.942056 0.001132 -0.528377 -4.374601 9.724378 5.162127 -0.332483 -4.128024 -8.458746 0.915710 -2.158299 17.308573 29.134007 21.771110 0.000000 0.000000 0.000000 -2.709295 0.774324 -8.131678 -3.251802 -0.458679 -11.975141 11.888741 18.947746 11.340100 0.000000 0.000000 0.000000 6.921640 0.286769 -5.263918 -3.018467 1.331011 -4.840844 -4.824752 4.135831 -1.436564 4.970160 -2.641317 -7.703440 0.000000 0.000000 0.000000 -17.446140 2.784911 -3.891831 -53.631666 -6.901757 -2.602862 -8.961750 -10.559230 1.125591 0.000000 0.000000 0.000000 12.729138 -11.031525 -6.072317 63.213700 -1.508986 -6.023403 11.917755 20.315161 2.638096 0.000000 0.000000 0.000000 
-0.000972 0.942446 0.001105 -0.602119 -4.174881 9.697682 5.030290 -0.341473 -4.255137 -8.004704 0.873397 -1.912612 17.227262 29.048635 21.745346 0.000000 0.000000 0.000000 -2.564025 0.772671 -8.099452 -3.331628 -0.456618 -11.906823 11.814457 18.801932 11.348594 0.000000 0.000000 0.000000 6.994256 0.274502 -5.157664 -3.016001 1.331818 -4.855719 -4.802596 4.347162 -1.635087 5.069327 -2.610521 -8.216171 0.000000 0.000000 0.000000 -17.177751 2.509842 -3.777216 -53.792064 -7.126097 -2.489755 -9.155261 -10.183079 1.095876 0.000000 0.000000 0.000000 12.696388 -11.009124 -6.020122 63.029946 -1.873592 -6.148878 11.874359 19.872538 2.576102 0.000000 0.000000 0.000000 
